<svg width="692" height="711" viewBox="0 0 692 711" fill="none" xmlns="http://www.w3.org/2000/svg">
<path d="M127.549 196.876C224.526 83.6415 391.022 64.795 465.245 101.167C494.086 115.191 520.763 133.485 544.424 155.463C547.524 158.303 550.537 161.224 553.462 164.225C562.594 173.456 571.159 183.261 579.107 193.582C588.633 205.928 597.225 219.004 604.808 232.695C615.674 252.177 624.281 272.897 630.454 294.432C634.538 308.562 637.218 323.08 638.453 337.763C640.571 365.33 638.73 393.152 635.118 420.492C634.785 423.105 634.426 425.718 634.038 428.331C633.941 429.056 633.844 429.752 633.734 430.504C629.762 457.73 624.142 485.198 611.59 508.944C597.888 534.891 550.085 606.883 498.24 608.743C471.349 609.723 447.599 591.701 423.227 578.918C384.475 558.638 340.616 554.661 297.851 553.482C255.085 552.303 211.794 553.567 170.121 542.688C128.449 531.809 87.5934 506.828 66.2936 465.3C59.0553 451.183 53.5608 430.845 53.547 414.569C53.547 366.551 61.1867 324.555 74.5284 288.069C78.7651 276.435 83.7064 265.085 89.3234 254.083C97.5508 237.952 107.245 222.655 118.277 208.395L127.549 196.876Z" fill="#5A189A"/>
<g opacity="0.7">
<path opacity="0.7" d="M127.549 196.876C224.526 83.6415 391.022 64.795 465.245 101.167C494.086 115.191 520.763 133.485 544.424 155.463C547.524 158.303 550.537 161.224 553.462 164.225C562.594 173.456 571.159 183.261 579.107 193.582C588.633 205.928 597.225 219.004 604.808 232.695C615.674 252.177 624.281 272.897 630.454 294.432C634.538 308.562 637.218 323.08 638.453 337.763C640.571 365.33 638.73 393.152 635.118 420.492C634.785 423.105 634.426 425.718 634.038 428.331C633.941 429.056 633.844 429.752 633.734 430.504C629.762 457.73 624.142 485.198 611.59 508.944C597.888 534.891 550.085 606.883 498.24 608.743C471.349 609.723 447.599 591.701 423.227 578.918C384.475 558.638 340.616 554.661 297.851 553.482C255.085 552.303 211.794 553.567 170.121 542.688C128.449 531.809 87.5934 506.828 66.2936 465.3C59.0553 451.183 53.5608 430.845 53.547 414.569C53.547 366.551 61.1867 324.555 74.5284 288.069C78.7651 276.435 83.7064 265.085 89.3234 254.083C97.5508 237.952 107.245 222.655 118.277 208.395L127.549 196.876Z" fill="white"/>
</g>
<path d="M53.547 607.096H648.736" stroke="#263238" stroke-linecap="round" stroke-linejoin="round"/>
<path d="M511.596 401.063V401.219C511.596 401.475 511.651 401.745 511.762 402.029C512.381 405.141 512.843 408.284 513.146 411.445C513.409 414.158 513.616 417.254 513.672 420.705C513.803 428.681 513.271 436.654 512.08 444.537C511.776 446.61 511.416 448.797 510.987 450.984C510.309 454.592 509.478 458.37 508.454 462.275C507.997 464.093 507.471 465.954 506.918 467.828L506.267 470.115C506.018 471.038 505.769 471.961 505.534 472.955C503.943 479.265 502.672 485.655 501.728 492.1C500.551 500.124 499.818 508.092 499.416 515.633C498.877 525.688 498.904 534.977 499.14 542.618C499.133 542.745 499.133 542.873 499.14 543.001C499.389 550.77 499.859 556.863 500.178 560.328C500.358 562.359 500.482 563.509 500.496 563.58" stroke="#263238" stroke-linecap="round" stroke-linejoin="round"/>
<path d="M511.637 401.262C509.565 399.372 507.068 398.04 504.371 397.385L511.637 401.262Z" fill="white"/>
<path d="M511.637 401.262C509.565 399.372 507.068 398.04 504.371 397.385" stroke="#263238" stroke-linecap="round" stroke-linejoin="round"/>
<path d="M513.187 411.488L516.869 408.065" stroke="#263238" stroke-linecap="round" stroke-linejoin="round"/>
<path d="M508.495 462.289C508.302 461.293 508.015 460.317 507.637 459.378C507.092 458 506.35 456.712 505.437 455.558C504.755 454.69 503.979 453.903 503.125 453.214" stroke="#263238" stroke-linecap="round" stroke-linejoin="round"/>
<path d="M505.548 472.941C506.069 471.615 506.851 470.412 507.843 469.408C508.836 468.404 510.019 467.62 511.319 467.104" stroke="#263238" stroke-linecap="round" stroke-linejoin="round"/>
<path d="M499.154 525.774C500.385 524.24 501.313 518.431 501.811 515.306C501.935 514.568 502.032 513.886 502.129 513.474" fill="white"/>
<path d="M499.154 525.774C500.385 524.24 501.313 518.431 501.811 515.306C501.935 514.568 502.032 513.886 502.129 513.474" stroke="#263238" stroke-linecap="round" stroke-linejoin="round"/>
<path d="M489.673 536.312C490.083 536.269 490.495 536.269 490.905 536.312C492.718 536.493 494.448 537.176 495.911 538.29C497.374 539.403 498.514 540.904 499.209 542.632" fill="white"/>
<path d="M489.673 536.312C490.083 536.269 490.495 536.269 490.905 536.312C492.718 536.493 494.448 537.176 495.911 538.29C497.374 539.403 498.514 540.904 499.209 542.632" stroke="#263238" stroke-linecap="round" stroke-linejoin="round"/>
<path d="M511.028 451.098C511.028 451.098 511.679 428.048 499.347 419.682" stroke="#263238" stroke-linecap="round" stroke-linejoin="round"/>
<path d="M512.08 500.508C513.699 505.89 502.392 516.13 502.392 516.13C502.392 516.13 487.459 514.213 485.784 508.844C484.109 503.476 487.943 494.642 495.195 492.37C502.447 490.097 510.516 495.125 512.08 500.508Z" fill="#5A189A"/>
<path d="M524.661 435.277C523.277 440.958 512.537 445.034 512.537 445.034C512.537 445.034 505.16 436.186 506.544 430.476C507.928 424.767 513.893 418.489 518.903 419.81C523.913 421.131 526.1 429.567 524.661 435.277Z" fill="#5A189A"/>
<path d="M481.771 520.59C488.483 523.26 492.593 535.445 492.593 535.445C492.593 535.445 481.521 541.567 474.823 538.882C468.124 536.198 460.983 528.642 462.92 523.601C464.858 518.559 475.058 517.849 481.771 520.59Z" fill="#5A189A"/>
<path d="M496.482 453.555C497.841 454.727 499.399 455.632 501.077 456.225C501.92 456.505 502.821 456.541 503.683 456.331C504.545 456.121 505.333 455.671 505.963 455.032C507.347 453.342 507.015 450.771 506.115 448.655C504.316 444.607 497.7 437.719 492.621 439.693C485.286 442.576 493.216 451.098 496.482 453.555Z" fill="#5A189A"/>
<path d="M511.499 463.88C510.53 465.101 509.506 466.649 510.046 468.141C510.347 468.767 510.841 469.274 511.452 469.582C512.062 469.89 512.755 469.983 513.423 469.845C514.75 469.522 515.99 468.895 517.049 468.013C519.637 466.167 524.951 462.332 521.561 458.682C518.17 455.032 513.464 461.309 511.499 463.88Z" fill="#5A189A"/>
<path d="M489.839 412.368C489.28 412.402 488.746 412.614 488.312 412.976C487.877 413.338 487.564 413.831 487.417 414.385C487.196 415.706 488.261 416.856 489.286 417.666C491.86 419.711 499.596 425.193 501.313 419.895C502.946 414.896 493.244 411.985 489.839 412.368Z" fill="#5A189A"/>
<path d="M504.08 394.956C502.489 395.112 500.897 394.516 499.292 394.615C497.686 394.715 495.929 396.035 496.275 397.655C496.621 399.274 498.406 399.629 499.873 399.714C502.399 399.88 504.935 399.704 507.416 399.188C508.003 399.131 508.548 398.847 508.938 398.393C509.589 397.413 508.565 396.106 507.457 395.766C506.321 395.611 505.203 395.334 504.122 394.942L504.08 394.956Z" fill="#5A189A"/>
<path d="M519.664 406.219C521.256 406.219 522.806 405.565 524.411 405.551C526.017 405.537 527.871 406.744 527.608 408.392C527.345 410.039 525.629 410.508 524.162 410.692C521.654 411.033 519.114 411.033 516.606 410.692C516.012 410.678 515.446 410.429 515.028 409.996C514.322 409.073 515.263 407.696 516.329 407.27C517.457 407.053 518.558 406.706 519.609 406.233L519.664 406.219Z" fill="#5A189A"/>
<path d="M518.087 527.251C518.453 526.858 518.944 526.612 519.471 526.555C519.826 526.589 520.159 526.75 520.412 527.009C520.664 527.269 520.821 527.61 520.855 527.975C520.931 528.677 520.846 529.387 520.605 530.048C519.512 533.784 507.333 560.754 504.523 555.911C502.876 553.07 506.945 543.569 508.149 540.885C510.447 535.647 513.84 530.992 518.087 527.251Z" fill="#5A189A"/>
<path d="M512.149 402.81C512.149 402.81 511.416 396.263 512.952 395.709" stroke="#263238" stroke-linecap="round" stroke-linejoin="round"/>
<path d="M510.793 395.979C511.578 393.667 512.932 391.602 514.724 389.985C516.647 388.565 519.734 388.452 521.131 390.426C522.695 392.627 521.131 395.965 518.737 397.143C516.343 398.322 513.519 397.967 510.89 397.584C510.89 397.186 510.89 396.788 510.89 396.391L510.793 395.979Z" fill="#5A189A"/>
<path d="M517.353 606.769C504.306 609.027 490.983 609.027 477.937 606.769L462.602 560.342H532.688L517.353 606.769Z" fill="white" stroke="#263238" stroke-linecap="round" stroke-linejoin="round"/>
<path d="M249.881 271.339V271.496C249.937 271.751 249.992 272.021 250.047 272.305C250.674 275.416 251.136 278.559 251.431 281.721C251.694 284.434 251.888 287.53 251.957 290.981C252.099 298.937 251.581 306.89 250.407 314.756C250.103 316.829 249.743 319.016 249.314 321.204C248.636 324.811 247.791 328.589 246.781 332.494C246.311 334.312 245.798 336.173 245.245 338.048C245.023 338.814 244.802 339.567 244.594 340.334C244.387 341.101 244.082 342.18 243.847 343.175" stroke="#263238" stroke-linecap="round" stroke-linejoin="round"/>
<path d="M249.909 271.538C248.916 270.646 247.83 269.87 246.67 269.223C245.392 268.532 244.034 268.007 242.629 267.661" fill="white"/>
<path d="M249.909 271.538C248.916 270.646 247.83 269.87 246.67 269.223C245.392 268.532 244.034 268.007 242.629 267.661" stroke="#263238" stroke-linecap="round" stroke-linejoin="round"/>
<path d="M251.459 281.764L255.154 278.341" stroke="#263238" stroke-linecap="round" stroke-linejoin="round"/>
<path d="M246.781 332.566C246.584 331.568 246.292 330.593 245.909 329.654C245.364 328.276 244.622 326.989 243.709 325.834C243.027 324.966 242.251 324.18 241.397 323.49" stroke="#263238" stroke-linecap="round" stroke-linejoin="round"/>
<path d="M243.833 343.16C244.35 341.833 245.128 340.63 246.118 339.625C247.109 338.621 248.291 337.837 249.591 337.323" stroke="#263238" stroke-linecap="round" stroke-linejoin="round"/>
<path d="M237.425 396.05C238.657 394.516 239.598 388.707 240.096 385.583C240.207 384.844 240.318 384.162 240.401 383.75" fill="white"/>
<path d="M237.425 396.05C238.657 394.516 239.598 388.707 240.096 385.583C240.207 384.844 240.318 384.162 240.401 383.75" stroke="#263238" stroke-linecap="round" stroke-linejoin="round"/>
<path d="M227.945 406.531C228.359 406.488 228.776 406.488 229.19 406.531C231.002 406.716 232.73 407.402 234.193 408.515C235.655 409.627 236.796 411.126 237.494 412.851" fill="white"/>
<path d="M227.945 406.531C228.359 406.488 228.776 406.488 229.19 406.531C231.002 406.716 232.73 407.402 234.193 408.515C235.655 409.627 236.796 411.126 237.494 412.851" stroke="#263238" stroke-linecap="round" stroke-linejoin="round"/>
<path d="M249.3 321.317C249.3 321.317 249.964 298.267 237.619 289.902" stroke="#263238" stroke-linecap="round" stroke-linejoin="round"/>
<path d="M250.421 370.784C252.026 376.167 240.733 386.407 240.733 386.407C240.733 386.407 225.786 384.489 224.125 379.121C222.464 373.752 226.298 364.918 233.536 362.646C240.775 360.374 248.802 365.415 250.421 370.784Z" fill="#5A189A"/>
<path d="M262.96 305.553C261.576 311.234 250.836 315.31 250.836 315.31C250.836 315.31 243.376 306.462 244.816 300.752C246.255 295.043 252.151 288.766 257.161 290.086C262.171 291.407 264.344 299.843 262.96 305.553Z" fill="#5A189A"/>
<path d="M220.056 390.866C226.768 393.55 230.893 405.721 230.893 405.721C230.893 405.721 219.821 411.843 213.108 409.158C206.396 406.474 199.268 398.919 201.22 393.877C203.171 388.835 213.33 388.182 220.056 390.866Z" fill="#5A189A"/>
<path d="M234.768 323.831C236.122 325.003 237.675 325.908 239.349 326.501C240.192 326.781 241.093 326.818 241.955 326.607C242.816 326.397 243.605 325.948 244.235 325.308C245.619 323.618 245.286 321.047 244.387 318.931C242.588 314.884 235.986 307.996 230.893 309.97C223.571 312.824 231.488 321.346 234.768 323.831Z" fill="#5A189A"/>
<path d="M249.771 334.17C248.816 335.392 247.791 337.011 248.317 338.431C248.618 339.057 249.113 339.564 249.723 339.872C250.334 340.181 251.027 340.273 251.694 340.135C253.023 339.815 254.263 339.188 255.32 338.303C257.908 336.471 263.223 332.622 259.832 328.972C256.441 325.322 251.805 331.586 249.771 334.17Z" fill="#5A189A"/>
<path d="M228.111 282.644C227.553 282.68 227.019 282.893 226.585 283.255C226.151 283.616 225.838 284.108 225.689 284.661C225.467 285.982 226.533 287.132 227.571 287.942C230.145 289.987 237.868 295.469 239.598 290.172C241.217 285.172 231.529 282.261 228.111 282.644Z" fill="#5A189A"/>
<path d="M242.352 265.232C240.761 265.388 239.169 264.792 237.578 264.891C235.986 264.991 234.201 266.312 234.56 267.931C234.92 269.55 236.678 269.905 238.159 269.99C240.68 270.156 243.212 269.98 245.688 269.465C246.279 269.408 246.828 269.124 247.224 268.669C247.861 267.689 246.837 266.383 245.743 266.042C244.602 265.887 243.479 265.611 242.394 265.218L242.352 265.232Z" fill="#5A189A"/>
<path d="M257.936 276.495C259.542 276.495 261.092 275.841 262.683 275.827C264.275 275.813 266.143 277.02 265.894 278.668C265.645 280.315 263.901 280.784 262.434 280.968C259.926 281.309 257.385 281.309 254.878 280.968C254.284 280.955 253.718 280.705 253.3 280.273C252.594 279.349 253.535 277.972 254.615 277.546C255.742 277.325 256.842 276.978 257.895 276.509L257.936 276.495Z" fill="#5A189A"/>
<path d="M256.358 397.527C256.727 397.136 257.216 396.89 257.742 396.831C258.095 396.873 258.424 397.036 258.675 397.294C258.926 397.552 259.085 397.889 259.126 398.251C259.198 398.954 259.108 399.664 258.863 400.325C257.784 404.06 245.591 431.03 242.795 426.187C241.134 423.346 245.203 413.845 246.407 411.161C248.709 405.922 252.107 401.267 256.358 397.527Z" fill="#5A189A"/>
<path d="M250.421 273.115C250.421 273.115 249.687 266.567 251.238 266.013" stroke="#263238" stroke-linecap="round" stroke-linejoin="round"/>
<path d="M249.12 266.255C249.895 263.938 251.25 261.87 253.051 260.262C254.974 258.841 258.047 258.728 259.445 260.702C261.009 262.903 259.445 266.241 257.05 267.419C254.656 268.598 251.847 268.243 249.217 267.86C249.217 267.462 249.217 267.064 249.217 266.667L249.12 266.255Z" fill="#5A189A"/>
<path d="M74.5284 428.331V287.999" stroke="#263238" stroke-linecap="round" stroke-linejoin="round"/>
<path d="M501.492 428.332H484.594" stroke="#263238" stroke-linecap="round" stroke-linejoin="round"/>
<path d="M634.01 428.332H599.59" stroke="#263238" stroke-linecap="round" stroke-linejoin="round"/>
<path d="M483.044 215.141H544.037V155.52" stroke="#263238" stroke-linecap="round" stroke-linejoin="round"/>
<path d="M127.549 196.934H192.348V245.434H263.375" stroke="#263238" stroke-linecap="round" stroke-linejoin="round"/>
<path d="M89.3234 361.183V254.012" stroke="#263238" stroke-linecap="round" stroke-linejoin="round"/>
<path d="M118.277 207.5V291.492" stroke="#263238" stroke-linecap="round" stroke-linejoin="round"/>
<path d="M147.216 207.5V281.75" stroke="#263238" stroke-linecap="round" stroke-linejoin="round"/>
<path d="M176.156 207.5V337.38" stroke="#263238" stroke-linecap="round" stroke-linejoin="round"/>
<path d="M314.791 189.08V103.681H432.611V189.08" stroke="#263238" stroke-linecap="round" stroke-linejoin="round"/>
<path d="M323.427 146.103V113.822H345.211" stroke="#263238" stroke-linecap="round" stroke-linejoin="round"/>
<path d="M350 146.103V113.822H371.784" stroke="#263238" stroke-linecap="round" stroke-linejoin="round"/>
<path d="M376.573 146.103V113.822H398.357" stroke="#263238" stroke-linecap="round" stroke-linejoin="round"/>
<path d="M403.146 146.103V113.822H424.93" stroke="#263238" stroke-linecap="round" stroke-linejoin="round"/>
<path d="M323.427 189.08V156.798H345.211" stroke="#263238" stroke-linecap="round" stroke-linejoin="round"/>
<path d="M350 189.08V156.798H371.784" stroke="#263238" stroke-linecap="round" stroke-linejoin="round"/>
<path d="M376.573 189.08V156.798H398.357" stroke="#263238" stroke-linecap="round" stroke-linejoin="round"/>
<path d="M403.146 189.08V156.798H424.93" stroke="#263238" stroke-linecap="round" stroke-linejoin="round"/>
<path d="M553.476 162.905V269.919" stroke="#263238" stroke-linecap="round" stroke-linejoin="round"/>
<path d="M596.255 420.492H599.59" stroke="#263238" stroke-linecap="round" stroke-linejoin="round"/>
<path d="M579.121 193.639V313.449" stroke="#263238" stroke-linecap="round" stroke-linejoin="round"/>
<path d="M604.78 389.9V420.492H625.25" stroke="#263238" stroke-linecap="round" stroke-linejoin="round"/>
<path d="M604.78 232.695V314.06" stroke="#263238" stroke-linecap="round" stroke-linejoin="round"/>
<path d="M630.426 294.432V420.492H635.09" stroke="#263238" stroke-linecap="round" stroke-linejoin="round"/>
<path d="M317.891 430.902H53.547V607.096H317.891V430.902Z" fill="white" stroke="#263238" stroke-linecap="round" stroke-linejoin="round"/>
<path d="M53.547 430.902L185.719 518.999L317.891 430.902H53.547Z" fill="white" stroke="#263238" stroke-linecap="round" stroke-linejoin="round"/>
<path d="M145.984 492.512L53.547 607.096" stroke="#263238" stroke-linecap="round" stroke-linejoin="round"/>
<path d="M226.173 492.512L318.611 607.096" stroke="#263238" stroke-linecap="round" stroke-linejoin="round"/>
<path d="M459.35 206.079H397.9C396.13 206.082 394.393 206.57 392.87 207.494C391.346 208.418 390.091 209.744 389.236 211.334C387.726 214.131 385.514 216.462 382.83 218.085C380.145 219.708 377.086 220.564 373.971 220.564C370.855 220.564 367.796 219.708 365.112 218.085C362.427 216.462 360.215 214.131 358.705 211.334C357.857 209.724 356.6 208.378 355.067 207.441C353.535 206.503 351.784 206.008 350 206.008H288.619C286.934 205.986 285.262 206.304 283.697 206.945C282.132 207.586 280.705 208.537 279.498 209.744C278.292 210.95 277.328 212.389 276.663 213.978C275.999 215.567 275.645 217.275 275.624 219.004V574.658C275.671 578.148 277.066 581.477 279.502 583.913C281.939 586.35 285.218 587.695 288.619 587.653H459.35C462.752 587.695 466.033 586.35 468.471 583.914C470.91 581.478 472.308 578.15 472.359 574.658V219.075C472.312 215.581 470.915 212.251 468.475 209.814C466.036 207.377 462.754 206.034 459.35 206.079Z" fill="#5A189A"/>
<path d="M478.352 215.141C478.359 212.745 477.906 210.371 477.017 208.156C476.129 205.94 474.823 203.926 473.175 202.229C471.526 200.533 469.568 199.186 467.412 198.268C465.255 197.349 462.944 196.876 460.609 196.876H287.374C285.044 196.875 282.737 197.344 280.585 198.257C278.432 199.171 276.476 200.511 274.828 202.2C273.181 203.89 271.874 205.896 270.982 208.104C270.09 210.312 269.631 212.679 269.631 215.07V588.86C269.631 593.685 271.499 598.313 274.824 601.725C278.148 605.136 282.658 607.053 287.36 607.053H460.609C465.312 607.053 469.823 605.137 473.15 601.725C476.477 598.314 478.348 593.687 478.352 588.86V215.141ZM472.359 574.658C472.308 578.15 470.91 581.478 468.471 583.914C466.033 586.35 462.753 587.695 459.35 587.653H288.619C285.218 587.695 281.939 586.35 279.502 583.913C277.066 581.477 275.671 578.148 275.624 574.658V219.075C275.645 217.346 275.999 215.638 276.663 214.049C277.328 212.46 278.292 211.022 279.498 209.815C280.705 208.608 282.132 207.657 283.697 207.016C285.262 206.375 286.934 206.057 288.619 206.08H350.027C351.81 206.079 353.559 206.574 355.089 207.512C356.62 208.449 357.874 209.795 358.719 211.405C360.229 214.202 362.441 216.533 365.125 218.156C367.81 219.779 370.869 220.635 373.984 220.635C377.1 220.635 380.159 219.779 382.843 218.156C385.528 216.533 387.74 214.202 389.25 211.405C390.103 209.813 391.357 208.486 392.881 207.561C394.405 206.637 396.143 206.15 397.914 206.151H459.363C461.048 206.128 462.721 206.446 464.286 207.087C465.851 207.728 467.278 208.679 468.484 209.886C469.691 211.093 470.654 212.531 471.319 214.12C471.984 215.709 472.337 217.417 472.359 219.146V574.658Z" fill="#263238"/>
<path opacity="0.2" d="M419.49 196.933L304.411 607.082L350.11 607.039L460.927 196.933H419.49Z" fill="white"/>
<path opacity="0.2" d="M402.329 196.933L280.661 607.096L287.318 607.053L406.702 196.933H402.329Z" fill="white"/>
<path d="M405.028 501.843C405.113 505.908 404.404 509.95 402.943 513.73C401.483 517.51 399.3 520.952 396.523 523.853C393.746 526.754 390.432 529.056 386.775 530.622C383.118 532.188 379.193 532.988 375.23 532.974C367.145 532.942 359.391 529.669 353.625 523.853C347.859 518.037 344.537 510.138 344.367 501.843C344.284 497.778 344.994 493.738 346.455 489.959C347.917 486.181 350.1 482.741 352.877 479.841C355.653 476.942 358.967 474.641 362.623 473.076C366.279 471.51 370.203 470.711 374.164 470.725C382.249 470.753 390.002 474.023 395.768 479.837C401.535 485.651 404.858 493.549 405.028 501.843Z" fill="white" stroke="#263238" stroke-linecap="round" stroke-linejoin="round"/>
<path d="M364.753 525.077C361.936 524.008 359.354 522.377 357.155 520.277C354.939 518.092 353.223 515.429 352.131 512.48C350.887 509.175 350.272 505.655 350.318 502.112C350.301 499.092 350.821 496.093 351.854 493.264C352.793 490.651 354.202 488.243 356.006 486.163C359.564 482.17 364.159 479.302 369.251 477.897C371.751 477.206 374.329 476.857 376.919 476.861C379.069 476.851 381.211 477.113 383.299 477.642C385.313 478.149 387.24 478.968 389.015 480.07C390.772 481.153 392.346 482.52 393.679 484.118C395.067 485.841 396.128 487.816 396.807 489.941C397.583 492.365 397.966 494.903 397.942 497.454C397.912 502.384 396.181 507.145 393.056 510.889C391.712 512.453 390.121 513.773 388.35 514.795C386.824 515.694 385.1 516.182 383.34 516.215C382.125 516.232 380.939 515.837 379.963 515.093C379.474 514.721 379.075 514.238 378.799 513.681C378.523 513.124 378.377 512.508 378.372 511.883C377.464 513.3 376.218 514.455 374.752 515.238C373.287 516.021 371.65 516.406 369.999 516.357C368.699 516.417 367.404 516.177 366.206 515.656C365.009 515.135 363.94 514.346 363.079 513.346C361.351 511.286 360.437 508.636 360.518 505.919C360.53 503.682 360.909 501.464 361.639 499.357C362.367 497.234 363.397 495.233 364.698 493.42C365.994 491.639 367.645 490.163 369.542 489.089C371.438 487.991 373.579 487.418 375.756 487.427C377.269 487.411 378.763 487.782 380.102 488.506C381.402 489.218 382.456 490.324 383.119 491.674L383.396 490.722C383.616 490.056 384.086 489.506 384.701 489.195C385.316 488.883 386.026 488.835 386.676 489.06C386.927 489.148 387.165 489.272 387.382 489.43C387.588 489.599 387.752 489.815 387.86 490.062C387.969 490.309 388.018 490.579 388.004 490.85C388.005 491.115 387.963 491.379 387.88 491.631L383.396 506.941C383 508.107 382.745 509.319 382.634 510.548C382.593 510.778 382.608 511.014 382.677 511.237C382.745 511.459 382.867 511.66 383.029 511.823C383.192 511.986 383.392 512.105 383.61 512.17C383.828 512.235 384.059 512.244 384.281 512.196C385.868 512.092 387.355 511.364 388.433 510.165C389.929 508.648 391.077 506.81 391.797 504.782C392.655 502.568 393.097 500.206 393.098 497.823C393.116 495.725 392.817 493.636 392.212 491.631C391.703 489.903 390.897 488.282 389.831 486.845C388.822 485.536 387.6 484.417 386.219 483.536C384.842 482.644 383.339 481.978 381.763 481.562C380.145 481.125 378.48 480.906 376.808 480.908C374.687 480.911 372.577 481.217 370.538 481.817C368.439 482.427 366.439 483.351 364.601 484.558C362.748 485.758 361.071 487.221 359.619 488.904C358.123 490.677 356.959 492.719 356.186 494.926C355.317 497.329 354.881 499.875 354.899 502.439C354.854 505.475 355.39 508.491 356.477 511.315C357.414 513.76 358.893 515.948 360.795 517.706C362.633 519.344 364.755 520.611 367.051 521.442C369.473 522.321 372.025 522.763 374.593 522.748C377.339 522.748 380.069 522.322 382.69 521.484C382.952 521.388 383.228 521.34 383.506 521.342C383.766 521.338 384.024 521.39 384.262 521.496C384.501 521.601 384.715 521.757 384.89 521.953C385.067 522.142 385.206 522.364 385.298 522.608C385.391 522.852 385.436 523.112 385.43 523.373C385.463 523.786 385.35 524.198 385.111 524.532C384.872 524.866 384.523 525.1 384.129 525.191C380.863 526.216 377.469 526.752 374.054 526.782C370.88 526.777 367.732 526.201 364.753 525.077ZM376.185 510.35C377.553 509.342 378.568 507.907 379.078 506.259L381.97 495.821L381.776 495.395C381.596 495.052 381.378 494.733 381.126 494.443C380.779 494.033 380.399 493.653 379.991 493.307C379.473 492.882 378.888 492.551 378.261 492.327C376.623 491.74 374.83 491.806 373.237 492.512C372.364 492.891 371.563 493.424 370.87 494.088C370.15 494.777 369.509 495.549 368.961 496.389C368.411 497.263 367.947 498.19 367.577 499.158C367.188 500.127 366.886 501.13 366.677 502.155C366.468 503.13 366.361 504.125 366.359 505.123C366.346 505.764 366.383 506.405 366.469 507.041C366.533 507.606 366.654 508.162 366.829 508.702C366.981 509.204 367.2 509.682 367.48 510.122C367.73 510.519 368.049 510.866 368.421 511.145C368.817 511.44 369.263 511.656 369.736 511.784C370.288 511.95 370.862 512.027 371.438 512.011C373.169 512.033 374.859 511.464 376.24 510.392L376.185 510.35Z" fill="#5A189A" stroke="#263238" stroke-linecap="round" stroke-linejoin="round"/>
<path d="M404.349 395.141C404.432 399.205 403.722 403.245 402.261 407.024C400.8 410.802 398.616 414.242 395.84 417.142C393.063 420.042 389.749 422.342 386.093 423.907C382.437 425.473 378.513 426.272 374.552 426.258C366.468 426.23 358.715 422.96 352.948 417.146C347.181 411.332 343.858 403.435 343.689 395.141C343.602 391.075 344.309 387.032 345.769 383.251C347.229 379.47 349.412 376.027 352.189 373.126C354.966 370.224 358.281 367.923 361.939 366.357C365.597 364.791 369.523 363.993 373.486 364.009C381.572 364.041 389.325 367.314 395.091 373.13C400.857 378.947 404.18 386.845 404.349 395.141Z" fill="white" stroke="#263238" stroke-linecap="round" stroke-linejoin="round"/>
<path d="M393.056 392.3C383.548 385.909 364.905 385.909 355.84 392.3C354.182 392.619 352.691 393.539 351.64 394.892C350.588 396.245 350.045 397.942 350.11 399.671C350.249 403.804 366.981 403.804 366.843 399.671C366.761 397.943 366.118 396.293 365.016 394.984C371.292 393.593 377.784 393.593 384.06 394.984C383.039 396.317 382.509 397.977 382.565 399.671C382.704 403.804 399.436 403.804 399.284 399.671C399.205 397.903 398.548 396.213 397.418 394.876C396.287 393.538 394.751 392.631 393.056 392.3Z" fill="#5A189A" stroke="#263238" stroke-linecap="round" stroke-linejoin="round"/>
<path d="M404.349 291.492C404.516 299.147 400.447 305.993 393.914 310.552V329.143L380.918 315.792C378.817 316.178 376.686 316.368 374.552 316.36C357.806 316.36 343.979 305.226 343.689 291.492C343.398 277.759 356.726 266.638 373.486 266.638C390.246 266.638 404.128 277.83 404.349 291.492Z" fill="white" stroke="#263238" stroke-linecap="round" stroke-linejoin="round"/>
<path d="M361.099 291.492C361.102 292.291 360.874 293.072 360.444 293.737C360.013 294.402 359.401 294.921 358.683 295.229C357.965 295.536 357.174 295.618 356.411 295.464C355.647 295.31 354.945 294.927 354.394 294.363C353.843 293.8 353.468 293.081 353.315 292.299C353.162 291.516 353.239 290.704 353.536 289.966C353.833 289.228 354.337 288.598 354.984 288.154C355.63 287.71 356.391 287.473 357.169 287.473C358.209 287.473 359.207 287.896 359.943 288.649C360.68 289.403 361.096 290.425 361.099 291.492Z" fill="#5A189A" stroke="#263238" stroke-linecap="round" stroke-linejoin="round"/>
<path d="M377.915 291.492C377.918 292.291 377.69 293.072 377.259 293.737C376.829 294.402 376.216 294.921 375.498 295.229C374.78 295.536 373.99 295.618 373.226 295.464C372.463 295.31 371.761 294.927 371.21 294.363C370.659 293.8 370.283 293.081 370.131 292.299C369.978 291.516 370.055 290.704 370.352 289.966C370.649 289.228 371.153 288.598 371.799 288.154C372.446 287.71 373.207 287.473 373.984 287.473C375.025 287.473 376.022 287.896 376.759 288.649C377.496 289.403 377.911 290.425 377.915 291.492Z" fill="#5A189A" stroke="#263238" stroke-linecap="round" stroke-linejoin="round"/>
<path d="M394.731 291.492C394.733 292.291 394.505 293.072 394.075 293.737C393.645 294.402 393.032 294.921 392.314 295.229C391.596 295.536 390.805 295.618 390.042 295.464C389.278 295.31 388.577 294.927 388.026 294.363C387.475 293.8 387.099 293.081 386.946 292.299C386.793 291.516 386.87 290.704 387.167 289.966C387.464 289.228 387.968 288.598 388.615 288.154C389.262 287.71 390.022 287.473 390.8 287.473C391.84 287.473 392.838 287.896 393.575 288.649C394.311 289.403 394.727 290.425 394.731 291.492Z" fill="#5A189A" stroke="#263238" stroke-linecap="round" stroke-linejoin="round"/>
<path d="M204.555 348.174C204.064 349.112 203.356 349.911 202.493 350.503C196.108 355.729 189.576 360.743 182.896 365.543C180.446 367.304 177.899 369.122 175.533 371.096C161.305 380.867 169.997 383.253 161.305 403.932C159.257 408.874 159.631 433.089 159.631 433.089H158.925C157.259 431.402 155.488 429.827 153.624 428.374C153.367 428.196 153.098 428.035 152.821 427.891C152.561 427.754 152.281 427.663 151.991 427.621C150.607 427.536 145.334 428.19 140.005 427.834L138.621 427.721C137.846 427.636 137.085 427.536 136.324 427.394C135.563 427.252 134.829 427.096 134.123 426.897C129.067 425.233 124.108 423.27 119.273 421.017L116.865 419.952L115.675 419.427L114.595 418.944L113.82 418.603L113.073 418.276C111.813 417.737 110.637 417.24 109.557 416.856C109.063 416.674 108.559 416.518 108.049 416.387C108.049 417.552 107.869 418.745 107.717 419.91C107.052 425.463 105.572 430.59 102.928 431.271C102.874 431.286 102.816 431.286 102.762 431.271C102.529 431.316 102.293 431.34 102.056 431.342H101.849C101.263 431.33 100.683 431.22 100.132 431.016C97.7334 429.965 95.7728 428.079 94.5964 425.69C94.0707 424.683 93.7772 423.565 93.7384 422.423C93.7384 418.291 92.6173 393.905 92.6173 386.804C92.6173 379.703 94.0013 367.276 97.4475 362.66C98.7943 360.703 100.495 359.03 102.458 357.732C104.983 355.572 107.879 353.915 110.997 352.846C114.678 351.611 122.913 348.458 128.657 346.228L119.979 349.665C122.18 353.528 126.899 359.607 135.411 360.388C143.41 361.084 148.365 353.656 150.898 348.231C151.119 348.316 165.042 345.603 168.267 345.759C178.771 346.228 187.338 340.391 191.213 338.076C192.382 337.359 193.694 336.923 195.05 336.799C196.407 336.676 197.773 336.869 199.046 337.363C200.32 337.857 201.468 338.641 202.405 339.654C203.342 340.668 204.044 341.886 204.458 343.217V343.345C205.064 344.889 205.098 346.606 204.555 348.174Z" fill="#5A189A" stroke="#263238" stroke-linecap="round" stroke-linejoin="round"/>
<path d="M150.745 348.316L150.109 348.088L150.745 348.316Z" fill="white" stroke="#263238" stroke-linecap="round" stroke-linejoin="round"/>
<path d="M162.551 439.338C162.557 439.395 162.557 439.452 162.551 439.509C162.495 439.646 162.409 439.768 162.301 439.867C162.192 439.966 162.063 440.038 161.924 440.079C161.784 440.12 161.638 440.129 161.495 440.103C161.352 440.078 161.216 440.021 161.098 439.935C160.461 439.565 159.478 437.194 159.478 437.194L158.385 436.029L157.665 435.248C157.776 435.532 158.648 437.705 158.191 438.713C158.168 438.782 158.13 438.845 158.081 438.898C157.775 439.317 157.378 439.658 156.921 439.892C156.465 440.126 155.961 440.248 155.451 440.247C154.856 440.247 153.112 440.46 151.59 440.56H151.423C150.962 440.586 150.5 440.586 150.039 440.56C148.811 440.397 147.625 439.987 146.552 439.352C144.117 438.985 141.718 438.401 139.383 437.606L138.967 437.378L138.594 437.151C138.348 436.999 138.12 436.818 137.916 436.611C137.072 435.89 136.356 435.025 135.798 434.055C135.798 434.055 130.179 433.813 122.636 433.217C119.868 433.004 116.879 432.734 113.779 432.422C109.018 431.925 105.087 431.953 102.001 431.513H101.779C101.17 431.427 100.603 431.314 100.063 431.186C98.746 430.922 97.528 430.282 96.5489 429.34C95.5697 428.398 94.8691 427.192 94.5272 425.86C94.346 425.23 94.1982 424.59 94.0844 423.943L96.4925 419.682C97.7477 418.649 99.1474 417.816 100.645 417.211C102.967 416.214 105.532 415.971 107.994 416.515C108.504 416.645 109.007 416.802 109.502 416.984C110.582 417.41 111.758 417.907 113.017 418.404L113.779 418.731L114.554 419.072L115.633 419.554C121.792 422.168 129.141 425.534 134.054 426.954C135.53 427.35 137.034 427.626 138.552 427.777L139.936 427.891C145.265 428.246 150.524 427.593 151.922 427.678C153.32 427.763 156.738 431.101 158.925 433.16C159.52 433.728 160.046 434.197 160.406 434.481L160.572 434.623L160.696 434.737C161.489 435.571 162.044 436.612 162.302 437.748C162.411 438.128 162.485 438.518 162.523 438.912C162.548 439.053 162.558 439.196 162.551 439.338Z" fill="white" stroke="#263238" stroke-linecap="round" stroke-linejoin="round"/>
<path d="M162.551 439.338C162.557 439.395 162.557 439.452 162.551 439.509C162.493 439.645 162.407 439.766 162.298 439.863C162.188 439.961 162.059 440.032 161.92 440.071C161.781 440.111 161.635 440.118 161.492 440.091C161.35 440.065 161.215 440.007 161.098 439.921C160.413 439.106 159.866 438.179 159.478 437.18L158.385 436.029L157.665 435.262C157.762 435.49 158.662 437.705 158.205 438.728C158.182 438.797 158.144 438.86 158.094 438.912C157.941 439.122 157.764 439.312 157.568 439.48C156.972 439.972 156.23 440.243 155.465 440.247C154.856 440.247 153.126 440.446 151.617 440.56H151.423C150.962 440.586 150.5 440.586 150.039 440.56C148.818 440.392 147.639 439.987 146.566 439.367C144.131 438.993 141.732 438.403 139.397 437.606L138.995 437.407L138.621 437.18C138.382 437.018 138.155 436.838 137.943 436.64C137.088 435.913 136.362 435.038 135.798 434.055C135.798 434.055 130.345 433.814 122.955 433.231C120.187 433.018 116.99 432.734 113.779 432.408C109.405 431.967 105.793 431.84 102.873 431.371L101.973 431.2L100.935 430.959C100.696 429.219 100.872 427.445 101.447 425.789C101.984 424.393 102.816 423.136 103.883 422.109C104.951 421.082 106.227 420.312 107.62 419.853C109.349 419.201 111.12 418.674 112.921 418.276L113.668 418.603L114.443 418.944L115.523 419.427C121.792 422.196 129.058 425.548 133.985 426.926C135.46 427.324 136.964 427.595 138.483 427.735L139.867 427.849C145.195 428.218 150.455 427.565 151.853 427.65C153.25 427.735 156.655 431.058 158.773 433.118C159.253 433.589 159.756 434.034 160.281 434.453L160.447 434.581L160.572 434.694C161.379 435.517 161.937 436.563 162.177 437.705C162.286 438.085 162.36 438.475 162.399 438.87C162.469 439.018 162.521 439.176 162.551 439.338Z" fill="white" stroke="#263238" stroke-linecap="round" stroke-linejoin="round"/>
<path d="M145.984 435.561C145.984 435.561 149.126 437.236 150.372 437.819C151.617 438.401 151.507 440.744 151.507 440.744" fill="white"/>
<path d="M145.984 435.561C145.984 435.561 149.126 437.236 150.372 437.819C151.617 438.401 151.507 440.744 151.507 440.744" stroke="#263238" stroke-linecap="round" stroke-linejoin="round"/>
<path d="M149.347 433.288C151.324 434.736 153.227 436.286 155.049 437.932C155.316 438.253 155.489 438.644 155.55 439.06C155.612 439.477 155.558 439.903 155.395 440.29" fill="white"/>
<path d="M149.347 433.288C151.324 434.736 153.227 436.286 155.049 437.932C155.316 438.253 155.489 438.644 155.55 439.06C155.612 439.477 155.558 439.903 155.395 440.29" stroke="#263238" stroke-linecap="round" stroke-linejoin="round"/>
<path d="M157.624 435.234C155.986 433.433 154.254 431.726 152.434 430.121L157.624 435.234Z" fill="white"/>
<path d="M157.624 435.234C155.986 433.433 154.254 431.726 152.434 430.121" stroke="#263238" stroke-linecap="round" stroke-linejoin="round"/>
<path d="M150.732 348.344C148.226 353.755 143.258 361.126 135.258 360.487C126.788 359.748 122.027 353.627 119.827 349.75C122.872 348.557 125.958 347.336 128.491 346.313C128.491 343.671 128.408 340.504 128.131 337.366C128.131 336.684 127.992 335.945 127.923 335.306C127.854 334.667 127.771 334.213 127.688 333.687H143.784C143.784 333.687 143.687 334.341 143.562 335.434C143.466 336.414 143.341 337.721 143.244 339.198C143.12 341.158 143.036 343.458 143.092 345.631C143.867 345.901 144.656 346.199 145.445 346.512L146.967 347.052C147.576 347.279 148.171 347.478 148.808 347.691L150.192 348.117C150.376 348.181 150.556 348.257 150.732 348.344Z" fill="white" stroke="#263238" stroke-linecap="round" stroke-linejoin="round"/>
<path d="M127.923 335.25C127.923 335.25 130.926 343.26 135.286 344.623C139.646 345.986 143.59 335.434 143.59 335.434C143.59 335.434 137.445 342.166 135.161 341.115C132.878 340.064 127.951 335.306 127.951 335.306" fill="#263238"/>
<path d="M125.335 291.01C121.268 294.767 118.043 299.385 115.882 304.544C113.903 308.805 112.229 313.705 113.751 318.164C114.662 320.379 115.951 322.408 117.557 324.158C120.546 327.836 124.74 338.104 127.729 341.783C127.923 335.235 122.581 324.655 123.148 319.158C123.836 314.912 125.196 310.81 127.176 307.016C129.189 302.039 131.822 297.351 135.009 293.069C136.822 290.825 142.649 286.834 136.767 286.351C132.864 286.025 128.283 288.524 125.335 291.01Z" fill="#263238" stroke="#263238" stroke-linecap="round" stroke-linejoin="round"/>
<path d="M121.571 313.335C121.571 313.335 119.508 309.231 117.336 313.122C115.772 315.963 118.028 320.436 118.996 322.098C119.318 322.571 119.753 322.951 120.26 323.199C120.767 323.448 121.328 323.558 121.889 323.518L121.571 313.335Z" fill="white" stroke="#263238" stroke-linecap="round" stroke-linejoin="round"/>
<path d="M148.669 328.163C147.347 330.845 145.624 333.298 143.562 335.434L142.317 336.755C139.743 339.368 136.961 341.442 135.134 341.016C133.542 340.689 131.466 339.013 129.432 336.869C128.92 336.343 128.421 335.775 127.923 335.207C125.708 332.72 123.806 329.957 122.263 326.984C121.834 325.869 121.559 324.697 121.446 323.504C121.097 319.947 120.977 316.369 121.086 312.796C121.086 311.532 121.086 310.523 121.086 309.955C121.086 307.484 130.11 298.892 130.11 298.892C130.353 298.8 130.614 298.771 130.871 298.806C132.423 299.096 133.919 299.643 135.3 300.426C140.767 303.152 148.393 308.563 148.946 310.623C149.79 313.619 149.472 325.493 148.669 328.163Z" fill="white" stroke="#263238" stroke-linecap="round" stroke-linejoin="round"/>
<path d="M130.747 316.772C130.747 317.766 130.387 318.576 129.985 318.576C129.584 318.576 129.183 317.795 129.183 316.772C129.183 315.75 129.542 314.94 129.985 314.94C130.428 314.94 130.747 315.778 130.747 316.772Z" fill="#263238"/>
<path d="M141.057 314.955C141.5 314.955 141.86 315.764 141.86 316.772C141.86 317.781 141.5 318.576 141.057 318.576C140.614 318.576 140.255 317.767 140.255 316.772C140.255 315.778 140.614 314.955 141.057 314.955Z" fill="#263238"/>
<path d="M125.598 312.299C125.598 312.299 126.982 309.458 131.881 310.325" stroke="#263238" stroke-linecap="round" stroke-linejoin="round"/>
<path d="M145.611 312.299C145.611 312.299 144.227 309.458 139.327 310.325" stroke="#263238" stroke-linecap="round" stroke-linejoin="round"/>
<path d="M136.546 323.717C137.043 323.685 137.518 323.49 137.899 323.16C138.28 322.83 138.548 322.383 138.663 321.885C138.663 321.885 135.978 317.624 136.795 313.449" stroke="#263238" stroke-linecap="round" stroke-linejoin="round"/>
<path d="M119.827 303.394C118.712 304.946 117.869 306.686 117.336 308.535" stroke="white" stroke-linecap="round" stroke-linejoin="round"/>
<path d="M131.397 292.032C131.397 292.032 129.861 294.645 123.093 299.971C122.657 300.294 122.241 300.645 121.847 301.022" stroke="white" stroke-linecap="round" stroke-linejoin="round"/>
<path d="M109.696 375.3C108.773 388.802 107.851 402.313 106.928 415.833V414.797" fill="#263238"/>
<path d="M109.696 375.3C108.773 388.802 107.851 402.313 106.928 415.833V414.797" stroke="#263238" stroke-linecap="round" stroke-linejoin="round"/>
<path d="M197.123 330.719C198.374 330.218 199.726 330.038 201.06 330.197C202.394 330.355 203.67 330.847 204.777 331.628C206.984 333.232 208.59 335.562 209.33 338.232C210.212 340.891 210.124 343.788 209.081 346.384C208.541 347.664 207.673 348.77 206.569 349.583C205.465 350.396 204.166 350.886 202.811 351C200.793 350.974 198.842 350.248 197.275 348.941C192.099 344.964 189.511 334.085 197.123 330.719Z" fill="white" stroke="#263238" stroke-linecap="round" stroke-linejoin="round"/>
<path d="M208.583 285.371C208.583 285.542 208.583 286.664 208.68 286.862C209.164 289.049 210.188 294.517 207.6 295.625C208.583 299.218 210.991 322.695 210.673 334.667C210.59 338.246 209.981 342.493 206.853 344.027C201.58 346.597 196.57 340.334 197.165 335.434C198.092 328.745 197.774 321.928 198.549 315.168C199.393 308.152 200.943 300.965 199.241 294.106C198.826 293.637 196.168 288.226 195.296 286.735C194.905 286.097 194.598 285.41 194.383 284.689C194.042 282.239 193.876 279.766 193.885 277.29C194.674 275.756 195.698 277.176 196.237 278.185C196.678 279.414 196.829 280.733 196.68 282.034C196.629 282.352 196.673 282.678 196.805 282.971C196.921 283.138 197.078 283.271 197.261 283.356C197.443 283.441 197.644 283.474 197.843 283.454C199.545 283.198 199.476 281.735 199.448 280.613C199.448 276.85 199.448 273.086 199.448 269.351C199.448 268.726 199.642 267.036 200.223 266.979C200.805 266.922 201.677 267.405 201.76 269.408C201.856 271.666 201.856 278.625 201.856 278.625C201.911 278.682 201.98 278.724 202.055 278.746C202.13 278.769 202.209 278.771 202.286 278.753C202.424 278.753 202.479 278.497 202.535 278.355C203.351 274.861 204.182 271.368 204.998 267.874C205.095 267.462 205.69 266.61 206.119 266.61C207.143 266.61 207.171 267.831 207.226 268.186C207.586 270.061 205.026 277.787 204.597 279.548C204.597 279.861 204.597 280.329 204.915 280.244L208.929 271.936C209.115 271.45 209.408 271.016 209.785 270.666C210.162 270.316 210.612 270.06 211.102 269.919C211.169 269.897 211.242 269.897 211.309 269.919C211.381 269.962 211.439 270.026 211.475 270.104C211.863 270.814 211.475 271.794 211.254 272.575C211.032 273.356 208.029 279.094 206.963 281.409C206.811 281.735 206.562 282.474 206.867 282.829C207.171 283.184 207.725 282.502 207.946 282.034C208.624 280.613 209.261 279.278 209.884 277.886C210.077 277.475 210.368 276.892 210.825 276.992C213.524 277.588 209.69 283.397 208.583 285.371Z" fill="white" stroke="#263238" stroke-linecap="round" stroke-linejoin="round"/>
<path d="M201.137 284.15C202.53 285.282 203.74 286.634 204.721 288.155C205.205 288.919 205.529 289.779 205.672 290.678C205.815 291.578 205.774 292.499 205.552 293.381C205.484 293.612 205.396 293.835 205.289 294.049" fill="white"/>
<path d="M201.137 284.15C202.53 285.282 203.74 286.634 204.721 288.155C205.205 288.919 205.529 289.779 205.672 290.678C205.815 291.578 205.774 292.499 205.552 293.381C205.484 293.612 205.396 293.835 205.289 294.049" stroke="#263238" stroke-linecap="round" stroke-linejoin="round"/>
<path d="M162.149 372.872C163.614 375.902 164.6 379.152 165.07 382.501C165.471 385.852 165.596 388.48 163.367 397.896" stroke="#263238" stroke-linecap="round" stroke-linejoin="round"/>
<path d="M130.913 296.761C130.723 297.342 130.676 297.961 130.774 298.565C131.037 299.325 131.52 299.984 132.158 300.454C136.582 304.432 141.53 307.75 146.856 310.31C147.524 310.489 148.103 310.917 148.48 311.51C148.856 312.104 149.003 312.821 148.891 313.52V324.498C148.959 325.631 148.851 326.767 148.572 327.864C147.797 330.421 146.081 332.48 144.836 334.838C143.569 337.073 142.928 339.623 142.981 342.209C142.635 339.496 151.88 334.241 154.385 323.561C154.731 322.056 161.928 313.094 157.61 302.57C153.458 292.472 146.925 288.126 144.725 287.601C143.231 287.153 141.655 287.076 140.127 287.377C138.598 287.679 137.162 288.349 135.937 289.333C133.518 291.182 131.754 293.79 130.913 296.761Z" fill="#263238" stroke="#263238" stroke-linecap="round" stroke-linejoin="round"/>
<path d="M139.978 327.538C139.189 327.708 138.386 327.864 137.583 327.964C134.815 328.319 131.854 327.878 130.041 325.805C130.179 327.665 131.425 334.696 135.148 334.894C138.871 335.093 139.978 327.538 139.978 327.538Z" stroke="#263238" stroke-linecap="round" stroke-linejoin="round"/>
<path d="M136.379 292.472C137.976 296.191 140.519 299.4 143.742 301.76C146.081 303.479 148.752 304.715 150.898 306.674C153.666 309.273 155.479 313.392 154.413 317.127" stroke="white" stroke-linecap="round" stroke-linejoin="round"/>
<path d="M165.305 349.85C162.639 352.045 160.883 355.197 160.392 358.669C159.915 361.669 160.274 364.747 161.43 367.546" stroke="#263238" stroke-linecap="round" stroke-linejoin="round"/>
<path d="M113.751 373.283C113.53 377.004 111.274 380.228 109.087 383.225L113.751 373.283Z" fill="#263238"/>
<path d="M113.751 373.283C113.53 377.004 111.274 380.228 109.087 383.225" stroke="#263238" stroke-linecap="round" stroke-linejoin="round"/>
<path d="M108.353 401.73C109.453 403.619 110.924 405.251 112.673 406.523C114.422 407.795 116.411 408.678 118.512 409.116" stroke="#263238" stroke-linecap="round" stroke-linejoin="round"/>
<path d="M161.305 403.946C161.305 403.946 157.582 409.627 144.932 410.82" stroke="#263238" stroke-linecap="round" stroke-linejoin="round"/>
<path d="M531.871 354.167C531.871 354.167 483.639 369.505 474.56 357.391L475.792 295.597H483.113L491.721 339.127L531.248 331.699C531.248 331.699 536.314 347.804 531.871 354.167Z" fill="white"/>
<path d="M511.554 356.326C508.789 357.454 506.149 358.882 503.679 360.586C506.945 361.652 510.433 360.302 513.699 359.237C518.013 357.878 522.41 356.815 526.861 356.056C527.069 354.792 525.477 351.909 524.854 350.787C523.72 348.827 523.47 348.657 521.56 349.622C518.087 351.412 515.125 354.522 511.554 356.326Z" fill="#5A189A"/>
<path d="M531.871 354.167C531.871 354.167 483.639 369.505 474.56 357.391L475.792 295.597H483.113L491.721 339.127L531.248 331.699C531.248 331.699 536.314 347.804 531.871 354.167Z" stroke="#263238" stroke-linecap="round" stroke-linejoin="round"/>
<path d="M527.138 355.786L535.608 409.3C535.386 443.982 551.51 438.77 562.707 438.671C575.647 438.557 595.286 425.392 585.653 404.898L589.362 330.719L566.817 328.958C559.385 328.362 528.937 329.341 526.515 333.332C520.232 343.686 527.138 355.786 527.138 355.786Z" fill="white"/>
<path d="M528.467 360.203C533.497 379.731 545.561 396.572 562.222 407.326C560.419 407.033 558.657 406.513 556.977 405.778C555.287 405.031 553.394 404.925 551.635 405.48C551.21 405.637 550.82 405.878 550.486 406.191C550.152 406.503 549.882 406.879 549.691 407.299C549.499 407.718 549.39 408.173 549.37 408.636C549.35 409.098 549.418 409.561 549.573 409.996C549.976 410.662 550.526 411.221 551.178 411.629C553.926 413.612 556.931 415.189 560.105 416.316C557.321 416.023 554.509 416.244 551.801 416.97C551.303 419.441 553.988 421.23 556.105 422.437C559.484 424.481 562.377 427.271 564.575 430.604C557.144 430.62 549.719 431.056 542.334 431.91C541.361 432.134 540.343 432.035 539.428 431.626C538.47 430.894 537.825 429.81 537.629 428.601C535.983 422.693 535.026 416.605 534.778 410.465C534.639 407.014 534.778 403.534 534.335 400.111C533.978 397.413 533.489 394.735 532.868 392.087C530.718 381.842 529.071 371.517 527.927 361.112C527.415 361.154 528.467 360.203 528.467 360.203Z" fill="#5A189A"/>
<path d="M585.64 355.942C583.773 355.328 582.032 354.365 580.505 353.102C580.934 355.232 584.034 358.911 585.847 360.047C586.221 360.288 586.761 360.487 587.093 360.16C587.425 359.834 587.647 358.996 587.979 358.74L585.64 355.942Z" fill="#5A189A"/>
<path d="M527.138 355.786L535.608 409.3C535.386 443.982 551.51 438.77 562.707 438.671C575.647 438.557 595.286 425.392 585.653 404.898L589.362 330.719L566.817 328.958C559.385 328.362 528.937 329.341 526.515 333.332C520.232 343.686 527.138 355.786 527.138 355.786Z" stroke="#263238" stroke-linecap="round" stroke-linejoin="round"/>
<path d="M543.621 327.864C541.195 332.423 540.028 337.574 540.244 342.763C540.242 343.215 540.326 343.664 540.494 344.083C541.116 345.347 542.819 345.347 544.189 345.504C549.517 346.2 552.825 351.966 557.849 353.897C558.025 354.009 558.221 354.083 558.426 354.114C558.63 354.146 558.839 354.135 559.039 354.082C559.24 354.029 559.428 353.935 559.592 353.806C559.756 353.676 559.893 353.514 559.994 353.329C562.181 350.489 562.956 346.498 565.945 344.666C567.246 343.87 568.893 343.544 569.793 342.294C570.817 340.874 570.36 338.829 569.862 337.096C569.046 334.255 568.132 331.301 566.015 329.327C563.759 327.52 560.987 326.522 558.126 326.487C553.938 326.135 549.722 326.539 545.67 327.68C545.725 328.219 543.621 327.864 543.621 327.864Z" fill="#5A189A" stroke="#263238" stroke-linecap="round" stroke-linejoin="round"/>
<path d="M610.607 364.18C607.224 359.125 604.732 353.501 603.244 347.563C602.702 344.588 601.858 341.68 600.725 338.885C599.657 336.727 598.114 334.853 596.219 333.411C594.324 331.969 592.128 330.999 589.805 330.577C588.814 330.353 587.783 330.402 586.816 330.719C584.809 331.5 583.923 333.872 583.522 336.031C582.653 340.667 582.91 345.452 584.269 349.963C585.197 353.031 596.338 375.272 603.645 383.893C603.009 379.547 607.88 365.018 610.607 364.18Z" fill="white"/>
<path d="M588.754 359.819L595.591 373.042C596.573 374.931 597.68 376.947 599.59 377.771C598.389 373.403 597.706 368.901 597.556 364.364C597.631 362.084 597.374 359.806 596.795 357.604C596.518 357.845 596.227 356.823 596.227 356.823C595.923 357.405 595.12 357.419 594.497 357.291C590.027 356.326 586.954 352.235 584.297 348.429C583.951 349.704 583.896 351.044 584.136 352.344C584.376 353.645 584.905 354.871 585.681 355.928C585.681 355.928 588.532 359.379 588.754 359.819Z" fill="#5A189A"/>
<path d="M610.607 364.18C607.224 359.125 604.732 353.501 603.244 347.563C602.702 344.588 601.858 341.68 600.725 338.885C599.657 336.727 598.114 334.853 596.219 333.411C594.324 331.969 592.128 330.999 589.805 330.577C588.814 330.353 587.783 330.402 586.816 330.719C584.809 331.5 583.923 333.872 583.522 336.031C582.653 340.667 582.91 345.452 584.269 349.963C585.197 353.031 596.338 375.272 603.645 383.893C603.009 379.547 607.88 365.018 610.607 364.18Z" stroke="#263238" stroke-linecap="round" stroke-linejoin="round"/>
<path d="M601.002 380.086C593.556 365.444 597.154 331.699 596.933 326.274L606.759 325.734C607.742 325.734 612.295 354.508 615.396 366.452C618.164 377.331 615.506 388.338 610.607 388.338C606.538 388.338 602.566 383.168 601.002 380.086Z" fill="white" stroke="#263238" stroke-linecap="round" stroke-linejoin="round"/>
<path d="M512.274 342.067C519.194 331.699 532.771 330.875 532.771 330.875" stroke="#263238" stroke-linecap="round" stroke-linejoin="round"/>
<path d="M485.576 347.875C487.669 345.902 489.31 343.477 490.379 340.774L485.576 347.875Z" fill="white"/>
<path d="M485.576 347.875C487.669 345.902 489.31 343.477 490.379 340.774" stroke="#263238" stroke-linecap="round" stroke-linejoin="round"/>
<path d="M536.992 396.873C540.936 403.506 566.485 410.593 576.671 409.073" stroke="#263238" stroke-linecap="round" stroke-linejoin="round"/>
<path d="M544.217 415.592C551.576 416.891 559.119 416.596 566.361 414.726" stroke="#263238" stroke-linecap="round" stroke-linejoin="round"/>
<path d="M578.111 351.241L582.982 358.016C583.647 358.939 584.574 359.976 585.667 359.72" stroke="#263238" stroke-linecap="round" stroke-linejoin="round"/>
<path d="M614.316 608.218C613.887 610.022 613.749 612.166 615.008 613.515C616.268 614.865 618.094 614.836 619.797 614.808L625.651 614.694C627.909 614.81 630.165 614.447 632.28 613.629C633.338 613.207 634.244 612.462 634.875 611.494C635.507 610.526 635.833 609.382 635.81 608.218C635.665 607.317 635.385 606.445 634.979 605.633C634.453 604.469 633.927 603.29 633.415 602.125C626.952 587.511 617.084 596.402 614.316 608.218Z" fill="white" stroke="#263238" stroke-linecap="round" stroke-linejoin="round"/>
<path d="M606.067 590.99C606.272 597.698 605.724 604.408 604.434 610.987C604.13 612.478 604.434 614.737 605.818 614.595C606.361 614.509 606.854 614.221 607.202 613.785C612.289 608.636 615.928 602.174 617.735 595.081C618.006 594.344 618.133 593.559 618.107 592.771C618.081 591.984 617.902 591.21 617.582 590.493C617.203 589.918 616.736 589.41 616.198 588.988C611.507 585.139 605.638 581.319 606.067 590.99Z" fill="white" stroke="#263238" stroke-linecap="round" stroke-linejoin="round"/>
<path d="M589.999 419.327C589.999 419.327 597.293 432.336 598.857 435.362C600.421 438.387 633.457 482.939 639.796 515.377C640.986 521.541 616.614 590.479 616.614 590.479L611.078 587.269C611.078 587.269 614.925 524.396 613.984 519.169C613.043 513.943 588.726 475.369 588.726 475.369C588.726 475.369 575.149 465.13 569.558 453.228L589.999 419.327Z" fill="#263238"/>
<path d="M590.788 451.921C590.788 451.921 586.636 461.409 586.636 462.772C586.636 464.135 609.472 538.186 616.185 555.314C620.429 566.345 624.17 577.631 627.409 589.173C627.409 589.173 630.011 592.681 628.046 596.274C626.08 599.867 618.261 602.224 616.655 599.015C615.05 595.805 599.231 579.132 592.56 562.543C585.889 545.955 576.505 518.232 571.163 507.907C564.166 494.713 557.954 481.097 552.562 467.132C545.85 449.507 538.985 430.504 538.985 430.504C541.773 430.762 544.574 430.843 547.372 430.746C553.96 430.515 560.484 429.33 566.748 427.224C581.336 422.196 587.647 412.567 587.647 412.567C587.647 412.567 591.259 422.608 592.2 424.554L590.788 451.921Z" fill="#263238"/>
<path d="M637.36 521.726C635.93 524.239 634.007 526.42 631.713 528.131" stroke="white" stroke-linecap="round" stroke-linejoin="round"/>
<path d="M639.145 517.593C638.937 518.285 638.687 518.963 638.398 519.624" stroke="white" stroke-linecap="round" stroke-linejoin="round"/>
<path d="M577.599 429.794C581.28 436.299 584.726 445.658 584.173 453.157C583.876 454.519 583.411 455.836 582.789 457.077" stroke="white" stroke-linecap="round" stroke-linejoin="round"/>
<path d="M555.316 437.023C555.717 440.645 556.257 446.667 555.482 450.217C554.827 453.849 552.797 457.066 549.835 459.165" stroke="white" stroke-linecap="round" stroke-linejoin="round"/>
<path d="M586.705 423.318C587.509 424.346 588.162 425.49 588.643 426.712C589.58 428.469 590.869 430.001 592.424 431.211C593.979 432.42 595.766 433.278 597.667 433.728" stroke="white" stroke-linecap="round" stroke-linejoin="round"/>
<path d="M574.955 437.833C579.841 448.797 583.577 459.79 591.162 478.423" stroke="white" stroke-linecap="round" stroke-linejoin="round"/>
<path d="M572.353 432.223C572.768 433.075 573.17 433.927 573.571 434.779" stroke="white" stroke-linecap="round" stroke-linejoin="round"/>
<path d="M613.015 516.102C615.255 520.53 618.102 524.605 621.471 528.202" stroke="white" stroke-linecap="round" stroke-linejoin="round"/>
<path d="M615.326 520.192C616.793 527.141 619.47 533.761 623.229 539.734" stroke="white" stroke-linecap="round" stroke-linejoin="round"/>
<path d="M580.92 520.547C570.139 496.943 558.638 473.523 544.507 437.833" stroke="white" stroke-linecap="round" stroke-linejoin="round"/>
<path d="M583.356 527.407C583.093 526.583 582.816 525.759 582.526 524.921" stroke="white" stroke-linecap="round" stroke-linejoin="round"/>
<path d="M620.627 599.98C617.859 596.274 597.681 567.315 592.67 554.192C589.335 545.444 586.816 539.266 584.366 530.545" stroke="white" stroke-linecap="round" stroke-linejoin="round"/>
<path d="M613.015 544.251L622.606 573.181" stroke="white" stroke-linecap="round" stroke-linejoin="round"/>
<path d="M606.552 325.748L603.646 325.99C599.963 326.661 596.18 326.482 592.574 325.464C590.262 324.882 584.906 323.178 584.27 323.064C582.678 322.715 581.071 322.449 579.453 322.269C574.568 321.97 577.045 320.096 579.08 320.181C581.765 320.309 582.664 320.252 584.726 320.408C584.477 320.266 583.716 320.11 583.702 319.499C583.702 318.008 585.612 318.079 585.612 318.079C585.612 318.079 583.522 317.17 583.813 316.048C584.103 314.926 585.501 314.628 586.387 314.713C586.387 314.713 585.211 314.131 585.266 313.506C585.515 311.091 590.345 310.921 590.345 310.921C589.177 310.385 588.083 309.693 587.093 308.862C586.731 308.462 586.478 307.973 586.359 307.442C586.333 307.188 586.374 306.933 586.477 306.701C586.581 306.47 586.743 306.271 586.946 306.126C587.15 305.981 587.388 305.895 587.635 305.876C587.883 305.858 588.13 305.908 588.352 306.021C589.602 306.875 590.808 307.795 591.965 308.777C593.459 309.87 595.189 310.566 596.767 311.546C598.305 312.896 599.545 314.567 600.407 316.446C600.656 316.843 606.552 325.748 606.552 325.748Z" fill="white" stroke="#263238" stroke-linecap="round" stroke-linejoin="round"/>
<path d="M475.791 295.597V287.771C475.774 283.844 476.333 279.937 477.452 276.182C478.089 274.109 478.836 272.305 479.514 272.035C480.774 271.566 481.327 276.807 481.327 276.807C480.381 272.605 479.774 268.33 479.514 264.025C479.514 259.466 485.493 278.398 485.493 278.398L483.113 295.597H475.791Z" fill="white" stroke="#263238" stroke-linecap="round" stroke-linejoin="round"/>
<path d="M483.016 282.871C483.739 282.299 484.279 281.517 484.566 280.627L483.016 282.871Z" fill="white"/>
<path d="M483.016 282.871C483.739 282.299 484.279 281.517 484.566 280.627" stroke="#263238" stroke-linecap="round" stroke-linejoin="round"/>
<path d="M540.978 311.915C543.563 316.381 544.992 321.451 545.13 326.643C545.379 335.278 555.122 347.364 557.904 347.946C560.686 348.529 563.26 334.312 563.136 330.009C563.011 325.705 561.461 313.818 561.461 313.818C561.461 313.818 548.133 303.479 540.978 311.915Z" fill="white" stroke="#263238" stroke-linecap="round" stroke-linejoin="round"/>
<path d="M544.895 323.348C544.895 323.348 557.669 341.229 562.679 323.05C567.689 304.871 548.631 328.021 544.895 323.348Z" fill="#263238"/>
<path d="M566.457 310.495C565.779 321.104 561.06 327.069 555.621 328.12C550.652 329.057 543.386 323.859 539.76 316.147C539.483 315.963 535.068 312.824 534.016 312.057C533.467 311.663 533.019 311.138 532.71 310.527C532.402 309.916 532.242 309.237 532.245 308.549C532.28 307.889 532.507 307.255 532.897 306.728C533.287 306.202 533.821 305.807 534.432 305.595H534.556C535.179 305.456 535.828 305.505 536.425 305.737C535.511 302.116 534.764 298.437 534.196 294.73C534.459 286.209 537.213 279.25 546.071 278.568C554.929 277.886 562.333 282.971 562.679 286.635C562.928 289.475 563.828 296.989 564.631 304.757C564.852 306.774 566.61 308.109 566.457 310.495Z" fill="white" stroke="#263238" stroke-linecap="round" stroke-linejoin="round"/>
<path d="M562.679 298.224C562.679 298.224 556.977 295.54 557.946 304.26C558.14 305.979 561.254 308.521 561.254 308.521C561.254 308.521 560.451 311.092 558.97 311.092" fill="white"/>
<path d="M562.679 298.224C562.679 298.224 556.977 295.54 557.946 304.26C558.14 305.979 561.254 308.521 561.254 308.521C561.254 308.521 560.451 311.092 558.97 311.092" stroke="#263238" stroke-linecap="round" stroke-linejoin="round"/>
<path d="M551.662 301.207C551.662 301.207 548.756 299.389 546.763 300.511C545.724 300.975 544.839 301.74 544.217 302.712" fill="white"/>
<path d="M551.662 301.207C551.662 301.207 548.756 299.389 546.763 300.511C545.724 300.975 544.839 301.74 544.217 302.712" stroke="#263238" stroke-linecap="round" stroke-linejoin="round"/>
<path d="M550.002 306.234C550.223 307.285 550.002 308.223 549.406 308.35C548.811 308.478 548.23 307.711 548.022 306.66C547.815 305.609 548.022 304.672 548.631 304.544C549.24 304.416 549.794 305.169 550.002 306.234Z" fill="#263238"/>
<path d="M561.24 303.166C561.461 304.217 561.24 305.155 560.645 305.283C560.05 305.41 559.468 304.643 559.261 303.607C559.053 302.57 559.261 301.604 559.856 301.491C560.451 301.377 561.032 302.13 561.24 303.166Z" fill="#263238"/>
<path d="M533.532 283.724C532.52 284.741 531.818 286.039 531.511 287.459C530.682 290.462 530.443 293.604 530.806 296.702C531.17 299.801 532.129 302.795 533.629 305.51C534.552 305.394 535.486 305.432 536.397 305.624C537.366 305.879 538.611 307.584 539.068 308.464C539.469 309.403 539.698 310.409 539.746 311.432C539.525 308.734 539.317 306.05 539.096 303.351C538.947 302.272 538.994 301.175 539.234 300.113C539.912 297.898 539.165 292.671 539.359 287.999C545.102 295.199 553.448 293.921 556.216 293.679C560.368 293.324 563.911 288.964 563.689 285.854C563.468 282.744 562.651 274.734 548.964 273.91C545.948 273.581 542.908 274.231 540.272 275.77C539.437 276.335 538.727 277.075 538.19 277.942C537.654 278.808 537.302 279.782 537.158 280.798C536.964 282.105 537.449 282.218 536.48 282.857C535.511 283.496 534.487 282.886 533.532 283.724Z" fill="#263238" stroke="#263238" stroke-linecap="round" stroke-linejoin="round"/>
<path d="M551.662 316.091C551.662 316.091 553.697 318.391 557.946 316.872L551.662 316.091Z" fill="white"/>
<path d="M551.662 316.091C551.662 316.091 553.697 318.391 557.946 316.872" stroke="#263238" stroke-linecap="round" stroke-linejoin="round"/>
</svg>
